<svg width="11" height="10" viewBox="0 0 11 10" fill="none" xmlns="http://www.w3.org/2000/svg">
<path d="M5.81132 7.77079C5.99361 7.76559 6.16028 7.69788 6.2957 7.55204L10.254 3.49996C10.3686 3.38537 10.4311 3.23955 10.4311 3.06767C10.4311 2.72392 10.1603 2.44788 9.81654 2.44788C9.64987 2.44788 9.4884 2.51558 9.3686 2.63538L5.81653 6.28642L2.25403 2.63538C2.13424 2.52079 1.97799 2.44788 1.80611 2.44788C1.46236 2.44788 1.19153 2.72392 1.19153 3.06767C1.19153 3.23955 1.25403 3.38537 1.36861 3.49996L5.33215 7.55204C5.47278 7.69788 5.62903 7.77079 5.81132 7.77079Z" fill="white" fill-opacity="0.443"/>
</svg>
