<svg width="16" height="16" viewBox="0 0 16 16" fill="none" xmlns="http://www.w3.org/2000/svg">
<path d="M14.5 3.25H11.75V2C11.75 1.03516 10.9648 0.25 10 0.25H6C5.03516 0.25 4.25 1.03516 4.25 2V3.25H1.5C1.08594 3.25 0.75 3.58594 0.75 4C0.75 4.41406 1.08594 4.75 1.5 4.75H2.28351L2.66406 13.125C2.73096 14.5967 3.93799 15.75 5.41113 15.75H10.5889C12.0625 15.75 13.2686 14.5967 13.3359 13.125L13.7169 4.75H14.5C14.9141 4.75 15.25 4.41406 15.25 4C15.25 3.58594 14.9141 3.25 14.5 3.25ZM5.75 2C5.75 1.8623 5.8623 1.75 6 1.75H10C10.1377 1.75 10.25 1.8623 10.25 2V3.25H5.75V2ZM11.8379 13.0566C11.8066 13.7256 11.2588 14.25 10.5889 14.25H5.41113C4.74121 14.25 4.19287 13.7256 4.16211 13.0566L3.78467 4.75H12.2148L11.8379 13.0566ZM6.875 6.5V12.5C6.875 12.8447 6.59521 13.125 6.25 13.125C5.90479 13.125 5.625 12.8447 5.625 12.5V6.5C5.625 6.15479 5.90479 5.875 6.25 5.875C6.59521 5.875 6.875 6.15479 6.875 6.5ZM10.375 6.5V12.5C10.375 12.8447 10.0947 13.125 9.75 13.125C9.40527 13.125 9.125 12.8447 9.125 12.5V6.5C9.125 6.15479 9.40527 5.875 9.75 5.875C10.0947 5.875 10.375 6.15479 10.375 6.5Z" fill="#9B9B9B"/>
</svg>
