<svg width="34" height="35" viewBox="0 0 34 35" fill="none" xmlns="http://www.w3.org/2000/svg">
<g filter="url(#filter0_ddddd_9_5943)">
<rect x="3" y="2.5" width="28" height="28" rx="6" fill="#212124"/>
<rect x="5" y="4.5" width="24" height="24" rx="4" fill="white" fill-opacity="0.1"/>
<g clip-path="url(#clip0_9_5943)">
<path fill-rule="evenodd" clip-rule="evenodd" d="M17 9.91699C13.27 9.91699 10.25 12.937 10.25 16.667C10.2499 18.0837 10.6955 19.4645 11.5238 20.6139C12.3521 21.7633 13.521 22.6229 14.865 23.071C15.203 23.13 15.329 22.927 15.329 22.75C15.329 22.59 15.321 22.058 15.321 21.493C13.625 21.805 13.186 21.079 13.051 20.7C12.975 20.506 12.646 19.907 12.359 19.746C12.123 19.62 11.786 19.307 12.351 19.299C12.882 19.291 13.262 19.789 13.389 19.991C13.996 21.011 14.967 20.725 15.355 20.548C15.414 20.109 15.591 19.814 15.785 19.645C14.283 19.476 12.714 18.894 12.714 16.312C12.714 15.578 12.975 14.971 13.406 14.498C13.338 14.329 13.102 13.638 13.473 12.709C13.473 12.709 14.038 12.532 15.329 13.401C15.8788 13.2489 16.4466 13.1722 17.017 13.173C17.591 13.173 18.164 13.249 18.704 13.401C19.995 12.524 20.561 12.709 20.561 12.709C20.931 13.637 20.696 14.329 20.628 14.499C21.058 14.971 21.32 15.569 21.32 16.312C21.32 18.902 19.742 19.476 18.24 19.645C18.485 19.855 18.696 20.261 18.696 20.894C18.696 21.796 18.688 22.522 18.688 22.75C18.688 22.927 18.814 23.138 19.152 23.07C20.4918 22.6177 21.6561 21.7567 22.4809 20.6081C23.3057 19.4595 23.7496 18.0811 23.75 16.667C23.75 12.937 20.73 9.91699 17 9.91699Z" fill="#1B1F23"/>
</g>
</g>
<defs>
<filter id="filter0_ddddd_9_5943" x="0.5" y="0" width="33" height="34.5" filterUnits="userSpaceOnUse" color-interpolation-filters="sRGB">
<feFlood flood-opacity="0" result="BackgroundImageFix"/>
<feColorMatrix in="SourceAlpha" type="matrix" values="0 0 0 0 0 0 0 0 0 0 0 0 0 0 0 0 0 0 127 0" result="hardAlpha"/>
<feOffset dy="2"/>
<feGaussianBlur stdDeviation="1"/>
<feComposite in2="hardAlpha" operator="out"/>
<feColorMatrix type="matrix" values="0 0 0 0 0 0 0 0 0 0 0 0 0 0 0 0 0 0 0.24 0"/>
<feBlend mode="normal" in2="BackgroundImageFix" result="effect1_dropShadow_9_5943"/>
<feColorMatrix in="SourceAlpha" type="matrix" values="0 0 0 0 0 0 0 0 0 0 0 0 0 0 0 0 0 0 127 0" result="hardAlpha"/>
<feMorphology radius="1.5" operator="dilate" in="SourceAlpha" result="effect2_dropShadow_9_5943"/>
<feOffset/>
<feGaussianBlur stdDeviation="0.5"/>
<feComposite in2="hardAlpha" operator="out"/>
<feColorMatrix type="matrix" values="0 0 0 0 0 0 0 0 0 0 0 0 0 0 0 0 0 0 0.24 0"/>
<feBlend mode="normal" in2="effect1_dropShadow_9_5943" result="effect2_dropShadow_9_5943"/>
<feColorMatrix in="SourceAlpha" type="matrix" values="0 0 0 0 0 0 0 0 0 0 0 0 0 0 0 0 0 0 127 0" result="hardAlpha"/>
<feMorphology radius="1" operator="dilate" in="SourceAlpha" result="effect3_dropShadow_9_5943"/>
<feOffset/>
<feComposite in2="hardAlpha" operator="out"/>
<feColorMatrix type="matrix" values="0 0 0 0 0.152941 0 0 0 0 0.152941 0 0 0 0 0.164706 0 0 0 1 0"/>
<feBlend mode="normal" in2="effect2_dropShadow_9_5943" result="effect3_dropShadow_9_5943"/>
<feColorMatrix in="SourceAlpha" type="matrix" values="0 0 0 0 0 0 0 0 0 0 0 0 0 0 0 0 0 0 127 0" result="hardAlpha"/>
<feMorphology radius="1" operator="dilate" in="SourceAlpha" result="effect4_dropShadow_9_5943"/>
<feOffset/>
<feComposite in2="hardAlpha" operator="out"/>
<feColorMatrix type="matrix" values="0 0 0 0 1 0 0 0 0 1 0 0 0 0 1 0 0 0 0.06 0"/>
<feBlend mode="normal" in2="effect3_dropShadow_9_5943" result="effect4_dropShadow_9_5943"/>
<feColorMatrix in="SourceAlpha" type="matrix" values="0 0 0 0 0 0 0 0 0 0 0 0 0 0 0 0 0 0 127 0" result="hardAlpha"/>
<feOffset dy="-1"/>
<feComposite in2="hardAlpha" operator="out"/>
<feColorMatrix type="matrix" values="0 0 0 0 1 0 0 0 0 1 0 0 0 0 1 0 0 0 0.06 0"/>
<feBlend mode="normal" in2="effect4_dropShadow_9_5943" result="effect5_dropShadow_9_5943"/>
<feBlend mode="normal" in="SourceGraphic" in2="effect5_dropShadow_9_5943" result="shape"/>
</filter>
<clipPath id="clip0_9_5943">
<rect x="9.5" y="9" width="15" height="15" rx="4" fill="white"/>
</clipPath>
</defs>
</svg>
