<svg width="20" height="21" viewBox="0 0 20 21" fill="none" xmlns="http://www.w3.org/2000/svg">
<path fill-rule="evenodd" clip-rule="evenodd" d="M4 9.25C4 6.62665 6.12665 4.5 8.75 4.5C11.3734 4.5 13.5 6.62665 13.5 9.25C13.5 11.8734 11.3734 14 8.75 14C6.12665 14 4 11.8734 4 9.25ZM8.75 3C5.29822 3 2.5 5.79822 2.5 9.25C2.5 12.7018 5.29822 15.5 8.75 15.5C10.2056 15.5 11.545 15.0024 12.6073 14.168L16.7197 18.2803C17.0126 18.5732 17.4874 18.5732 17.7803 18.2803C18.0732 17.9874 18.0732 17.5126 17.7803 17.2197L13.668 13.1073C14.5024 12.045 15 10.7056 15 9.25C15 5.79822 12.2018 3 8.75 3Z" fill="#9B9B9B"/>
</svg>
