<svg width="24" height="24" viewBox="0 0 24 24" fill="none" xmlns="http://www.w3.org/2000/svg">
<path fill-rule="evenodd" clip-rule="evenodd" d="M9.94404 14.7209C10.048 14.8149 10.16 14.8409 10.28 14.7999L11.983 14.1119L18.827 7.26794L17.421 5.86994L10.585 12.7059L9.87404 14.3859C9.82204 14.5159 9.84504 14.6279 9.94404 14.7209ZM18.046 5.23694L19.46 6.64294L19.975 6.11994C20.1482 5.95395 20.2495 5.7267 20.257 5.48694C20.2629 5.37239 20.2427 5.258 20.198 5.15236C20.1533 5.04672 20.0853 4.95256 19.999 4.87694L19.749 4.62694C19.6729 4.55447 19.5814 4.50005 19.4813 4.46768C19.3813 4.43531 19.2752 4.42583 19.171 4.43994C18.9362 4.46109 18.717 4.5666 18.554 4.73694L18.046 5.23694ZM8.59304 5.36394C7.57196 5.36394 6.5927 5.76956 5.87068 6.49158C5.14867 7.21359 4.74304 8.19286 4.74304 9.21394V15.7139C4.74304 16.735 5.14867 17.7143 5.87068 18.4363C6.5927 19.1583 7.57196 19.5639 8.59304 19.5639H15.093C16.1141 19.5639 17.0934 19.1583 17.8154 18.4363C18.5374 17.7143 18.943 16.735 18.943 15.7139V12.9499C18.943 12.7245 18.8535 12.5083 18.6941 12.3489C18.5347 12.1895 18.3185 12.0999 18.093 12.0999C17.8676 12.0999 17.6514 12.1895 17.492 12.3489C17.3326 12.5083 17.243 12.7245 17.243 12.9499V15.7139C17.243 16.2842 17.0165 16.831 16.6133 17.2342C16.2101 17.6374 15.6633 17.8639 15.093 17.8639H8.59304C8.02283 17.8639 7.47597 17.6374 7.07276 17.2342C6.66956 16.831 6.44304 16.2842 6.44304 15.7139V9.21394C6.44304 8.64373 6.66956 8.09686 7.07276 7.69366C7.47597 7.29046 8.02283 7.06394 8.59304 7.06394H11.988C12.2135 7.06394 12.4297 6.97439 12.5891 6.81498C12.7485 6.65558 12.838 6.43937 12.838 6.21394C12.838 5.98851 12.7485 5.77231 12.5891 5.6129C12.4297 5.45349 12.2135 5.36394 11.988 5.36394H8.59304Z" fill="white" fill-opacity="0.81"/>
</svg>
