<svg width="20" height="20" viewBox="0 0 20 20" fill="none" xmlns="http://www.w3.org/2000/svg">
<rect width="20" height="20" rx="3" fill="#5167EC"/>
<path d="M9.20292 7.82622C9.20292 7.35006 9.60317 7.16374 10.245 7.15684C11.1766 7.15684 12.3635 7.43977 13.2951 7.94354V5.05897C12.2807 4.65872 11.2663 4.5 10.2519 4.5C7.76754 4.5 6.11133 5.79736 6.11133 7.96424C6.11133 11.3595 10.7694 10.8074 10.7694 12.2704C10.7694 12.8363 10.2795 13.0226 9.59627 13.0226C8.58184 13.0226 7.27068 12.6016 6.24244 12.0427V14.803C7.38109 15.293 8.53354 15.5 9.58937 15.5C12.1358 15.5 13.8886 14.4097 13.8886 12.2014C13.8886 8.55082 9.20292 9.2064 9.20292 7.82622Z" fill="white"/>
</svg>
